<?xml version="1.0" encoding="UTF-8"?>
<svg xmlns="http://www.w3.org/2000/svg" xmlns:xlink="http://www.w3.org/1999/xlink" viewBox="0 0 50 50" width="50px" height="50px">
<g id="surface157314024">
<path style=" stroke:none;fill-rule:nonzero;fill:rgb(82.745099%,82.745099%,82.745099%);fill-opacity:1;" d="M 6 4 C 4.90625 4 4 4.90625 4 6 L 4 44 C 4 45.09375 4.90625 46 6 46 L 44 46 C 45.09375 46 46 45.09375 46 44 L 46 6 C 46 4.90625 45.09375 4 44 4 Z M 6 6 L 44 6 L 44 44 L 6 44 Z M 19.925781 14 L 15 36 L 17.398438 36 L 18.824219 29.566406 L 23.625 29.566406 L 25.015625 36 L 27.449219 36 L 22.648438 14 Z M 32.734375 14 C 31.910156 14 31.25 14.625 31.25 15.5625 C 31.25 16.5 31.878906 17.125 32.703125 17.125 L 32.734375 17.125 C 33.65625 17.125 34.25 16.5 34.25 15.5625 C 34.25 14.625 33.65625 14 32.734375 14 Z M 21.226562 16.4375 L 21.320312 16.4375 C 21.578125 18.039062 21.867188 19.832031 22.1875 21.367188 L 23.320312 27 L 19.226562 27 L 20.328125 21.398438 C 20.648438 19.925781 20.96875 18.070312 21.226562 16.4375 Z M 31.5 19 L 31.5 36 L 34 36 L 34 19 Z M 31.5 19 "/>
</g>
</svg>
